<svg xmlns="http://www.w3.org/2000/svg" viewBox="0 0 28.28 31.29"><defs><style>.cls-1{fill:#00a13b;}.cls-2{fill:#d0d700;}</style></defs><g id="Lag_2" data-name="Lag 2"><g id="Lag_1-2" data-name="Lag 1"><path class="cls-1" d="M28.27,16.09A17.13,17.13,0,0,1,27.82,20a13.32,13.32,0,0,1-2.22,4.36c-1.05,1.61-2,3.32-3.6,4.26a35.29,35.29,0,0,1-3.48,1.74,12.26,12.26,0,0,1-11-.9A15.18,15.18,0,0,1,2.93,25.7C.57,22.65-.18,18.41,0,14.53A30.53,30.53,0,0,1,.7,10.28c.16-.8.06-2,.53-2.59C2,6.73,3.7,5.94,4.78,5.41A20.37,20.37,0,0,1,9.69,3.84,20.69,20.69,0,0,1,23.26,5.52C25,6.36,26.54,7.08,27.21,9A21.14,21.14,0,0,1,28.27,16.09Z"/><path class="cls-2" d="M24.64,17.4a10.17,10.17,0,0,1-.29,2.7,9.05,9.05,0,0,1-1.66,3A8.75,8.75,0,0,1,20,26.05a26.46,26.46,0,0,1-2.6,1.2,9.84,9.84,0,0,1-8.24-.62A11.34,11.34,0,0,1,5.76,24a11,11,0,0,1-2.15-7.72,8.75,8.75,0,0,1,3-6.32A4.38,4.38,0,0,1,8.51,8.6a32.78,32.78,0,0,1,3.31-1.34A13.17,13.17,0,0,1,15.73,7a9.83,9.83,0,0,1,4,1.44,9.9,9.9,0,0,1,4.12,4.8A12.42,12.42,0,0,1,24.64,17.4Z"/><path class="cls-1" d="M10.9,18.76a38.88,38.88,0,0,1-5.23,1.7c3.33-1.94,5.8-3.84,9.49-4.76,1.07.82,0,1.56-.53,1.78C13.69,17.86,11.85,18.41,10.9,18.76Z"/><path class="cls-1" d="M9.14.57a24,24,0,0,0-4.21.69c-.24.06.9,2.65,1,2.87A37.56,37.56,0,0,0,9.76,3.07s0,0,0,0C9.67,2.9,8.76.59,9.14.57Z"/><path class="cls-1" d="M22,4.14a8.22,8.22,0,0,1,1.13-2.42A16.47,16.47,0,0,0,19.17,0,8.06,8.06,0,0,0,18,2.76C18.35,3.12,22,4,22,4.14Z"/></g></g></svg>