<svg xmlns="http://www.w3.org/2000/svg" viewBox="0 0 28.78 31.83"><defs><style>.cls-1{fill:#c3cbce;stroke:#706f6f;stroke-miterlimit:10;stroke-width:0.5px;}</style></defs><g id="Lag_2" data-name="Lag 2"><g id="Lag_1-2" data-name="Lag 1"><path class="cls-1" d="M28.52,16.39a17.13,17.13,0,0,1-.45,3.91,13.42,13.42,0,0,1-2.22,4.36c-1.05,1.61-2,3.32-3.6,4.26a35.19,35.19,0,0,1-3.48,1.73,12.26,12.26,0,0,1-11-.89A15.18,15.18,0,0,1,3.18,26C.82,23,.07,18.71.29,14.83A30.67,30.67,0,0,1,1,10.57c.16-.8.06-2,.53-2.58C2.2,7,4,6.24,5,5.7A20.8,20.8,0,0,1,9.94,4.14,20.69,20.69,0,0,1,23.51,5.82c1.71.83,3.28,1.56,3.95,3.48A21.14,21.14,0,0,1,28.52,16.39Z"/><path class="cls-1" d="M24.89,17.7a10,10,0,0,1-.29,2.69,8.86,8.86,0,0,1-1.66,3,8.78,8.78,0,0,1-2.69,3c-.82.44-1.75.84-2.6,1.19a9.8,9.8,0,0,1-8.24-.61A11.37,11.37,0,0,1,6,24.33a11,11,0,0,1-2.15-7.71,8.79,8.79,0,0,1,3-6.33A4.36,4.36,0,0,1,8.76,8.9a32.88,32.88,0,0,1,3.31-1.35A13.51,13.51,0,0,1,16,7.27a10.13,10.13,0,0,1,4,1.44,9.9,9.9,0,0,1,4.12,4.8A12.44,12.44,0,0,1,24.89,17.7Z"/><path class="cls-1" d="M11.15,19.05a38.93,38.93,0,0,1-5.23,1.71c3.33-1.94,5.8-3.85,9.49-4.76,1.07.82,0,1.55-.53,1.77C13.94,18.16,12.1,18.7,11.15,19.05Z"/><path class="cls-1" d="M9.39.87a23.1,23.1,0,0,0-4.21.69c-.24.06.9,2.64,1,2.87C7.4,4.13,8.81,3.79,10,3.36c0,0,0,0,0,0C9.92,3.19,9,.89,9.39.87Z"/><path class="cls-1" d="M22.23,4.44A8.1,8.1,0,0,1,23.36,2,16.08,16.08,0,0,0,19.42.3a7.9,7.9,0,0,0-1.19,2.76C18.6,3.42,22.26,4.29,22.23,4.44Z"/></g></g></svg>