<svg xmlns="http://www.w3.org/2000/svg" viewBox="0 0 35.62 35.96"><defs><style>.cls-1{fill:#c3cbce;}</style></defs><g id="Lag_2" data-name="Lag 2"><g id="Lag_1-2" data-name="Lag 1"><path class="cls-1" d="M3.25,25l2.16-1.22c.19-.1.49-.29.67-.41L8.17,22c.18-.12.48-.3.67-.4L11,20.41l.68-.38,2.16-1.23c.19-.11-.95.48.68-.4a17.87,17.87,0,0,0,2.13-1.27h0a13.72,13.72,0,0,0,0-1.77c0-.22,0-.57,0-.79V12.09c0-.21,0-.57,0-.78l0-2.48c0-.22,0-.57,0-.78l.15-2.49a6.71,6.71,0,0,0,0-.78V2.3c0-.21,0-.57,0-.78,0,0,.44-1.3-.06-1.49S12.79.67,11,1.41a17.75,17.75,0,0,0-5.69,4A17.87,17.87,0,0,0,0,17.93a18,18,0,0,0,1.14,6.92c.14.34.25,1,.49,1a4.6,4.6,0,0,0,.94-.49Z"/><path class="cls-1" d="M31.3,26.32,29.14,25.1l-.69-.36-2.26-1c-.2-.09-.51-.24-.7-.35L23.3,22.19l-.69-.37L20.4,20.69l-.69-.37s-1.64-1-2.05-1.12-2,1.19-2,1.19l-.68.4L12.84,22l-.69.39L10,23.65,9.33,24,7.12,25.16l-.69.39-2.1,1.3-.68.41s-.8.27-.81.47A20.68,20.68,0,0,0,5.3,30.48a18.1,18.1,0,0,0,5.57,4.27,18.3,18.3,0,0,0,7,1.21,17.66,17.66,0,0,0,6.79-1.65,18.25,18.25,0,0,0,6.12-3.48c1-1,3-3,2.66-3.39A4.36,4.36,0,0,0,32,26.7Z"/><path class="cls-1" d="M25.24,15.89l3-3c.22-.23.62-.61.86-.83l3.1-2.89c.26-.25.67-.66.91-.92l0,0a17.31,17.31,0,0,0-2.31-3l-.69.67-.9.87-3,3c-.26.25-.66.67-.9.94l-2.83,3.15c-.21.23-.58.6-.8.82L19,17.16v.13l1.82,1,.69.37.64.33,2.26-2.22Z"/><path class="cls-1" d="M21.19,1,21.7.47A16.24,16.24,0,0,0,19,0V1.52c0,.21,0,.57,0,.78l0,.87,1.39-1.39C20.55,1.55,21,1.17,21.19,1Z"/><path class="cls-1" d="M29.76,20.45l3-3,.86-.83,1.86-1.74a13.78,13.78,0,0,0-.9-3.85l-.23.22-3,3c-.26.25-.66.67-.9.94l-2.83,3.16c-.21.23-.57.6-.8.81l-1.56,1.45,1.36.67.68.38.81.48.8-.78C29.13,21.09,29.52,20.69,29.76,20.45Z"/><path class="cls-1" d="M20.14,11.37l3-3L24,7.54l3.09-2.89c.27-.24.68-.65.92-.91l.41-.43A24.71,24.71,0,0,0,25,1.56L23.41,3.1c-.26.25-.66.67-.91.94L19.67,7.19c-.17.2-.46.49-.68.71v.15c0,.21,0,.56,0,.78l0,2.48v1.2l.27-.27Z"/><path class="cls-1" d="M32.11,22.88c-.2.23-.57.6-.8.81l-.15.14,1.14.59.7.34,1.46.69c.08-.18.17-.35.24-.54a15.92,15.92,0,0,0,.92-5.9c-.23.23-.5.51-.68.71Z"/></g></g></svg>