<svg xmlns="http://www.w3.org/2000/svg" viewBox="0 0 28.76 27.96"><defs><style>.cls-1{fill:#c3cbce;}</style></defs><g id="Lag_2" data-name="Lag 2"><g id="Lag_1-2" data-name="Lag 1"><g id="settings-gear-64"><path id="Path_108" data-name="Path 108" class="cls-1" d="M23.9,9.09l2-3.67L23.36,3,19.59,4.89a6.59,6.59,0,0,0-2-.7L16.18,0h-3.6L11.14,4a7.24,7.24,0,0,0-1.79.7L5.57,2.8,2.87,5.42l2,3.67a7,7,0,0,0-.72,1.74L0,12.23v3.5l4.13,1.4c.18.7.54,1.22.72,1.92l-2,3.67,2.52,2.45,3.78-1.93a6.27,6.27,0,0,0,2,.7l1.44,4h3.6l1.43-4c.72-.17,1.26-.52,2-.7l3.78,1.93,2.51-2.45-2-3.67a6.12,6.12,0,0,0,.72-1.92l4.14-1.4v-3.5l-4.14-1.4A6.8,6.8,0,0,0,23.9,9.09ZM14.37,19.22A5.24,5.24,0,1,1,14,8.74h.35a5.24,5.24,0,0,1,.34,10.48A1.93,1.93,0,0,1,14.37,19.22Z"/></g></g></g></svg>