<svg xmlns="http://www.w3.org/2000/svg" viewBox="0 0 50.09 49.82"><defs><style>.cls-1{fill:#006c3a;}.cls-2,.cls-5{fill:#b1e7f7;}.cls-3{fill:#5ad0ef;}.cls-4{fill:#d8f3fb;}.cls-4,.cls-5{opacity:0.6;}</style></defs><g id="Lag_2" data-name="Lag 2"><g id="Layer_1" data-name="Layer 1"><path class="cls-1" d="M50.09,24.89a24.38,24.38,0,0,1-.7,6.41c-.77,2.91-2.28,4.78-4,7.16-1.86,2.64-3.53,5.45-6.39,7-2,1.06-4.16,2-6.18,2.85C26.49,50.93,19.29,50,13.28,46.83A26.82,26.82,0,0,1,5.2,40.66C1,35.65-.33,28.69.07,22.32s2.66-10.49,7.24-15C8.92,5.69,9.59,4.7,11.72,4,14.41,3,16.91,1.36,19.61.77A31.79,31.79,0,0,1,28.89.09a23.74,23.74,0,0,1,9.57,3.44,23.47,23.47,0,0,1,9.79,11.41A29.25,29.25,0,0,1,50.09,24.89Z"/><path class="cls-2" d="M21.18,11.19v5.45l-1.34,4.71-4.9,15.1h0a1.77,1.77,0,0,0-.09.56c0,1.35,1.53,2.32,3.68,3.37a16.47,16.47,0,0,0,6.92,1.07,22.37,22.37,0,0,0,6.75-1c2.09-.68,3.54-1.8,3.81-3a2.42,2.42,0,0,0-.15-1.51L29.58,16.61V11.19"/><path class="cls-3" d="M35.24,35.45h0l-.05-.16s0,0,0-.06L30,19.58c-.52,0-2.93.41-4.48.41A35.06,35.06,0,0,1,21,19.56c-1.3,5.55-5,15.63-5,15.63a2.29,2.29,0,0,0-.13.73c0,2.45,4.36,4.44,9.73,4.44s9.73-2,9.73-4.44A2.42,2.42,0,0,0,35.24,35.45Z"/><path class="cls-2" d="M30.05,19.64c0,.47-2.11.84-4.69.84S21,20.07,21,19.6s1.79-.8,4.37-.8S30.05,19.17,30.05,19.64Z"/><path class="cls-4" d="M23.8,12.39,23.88,17c-.25,2.26-4.25,16.22-4.59,17.35s1.19,2.4,1.7,2.79c.34.26.41,1,.42,1.48a.25.25,0,0,1-.35.21c-.87-.42-3-1.09-3.69-2.31-.31-.54.38-2.24.47-2.44,0,0,0,0,0-.05s4.2-15.46,4.33-17.3a42.2,42.2,0,0,0,.05-4.58"/><path class="cls-3" d="M29.58,11.21c0,.56-1.89,1-4.2,1.3s-4.19-.65-4.2-1.3,1.88-1,4.2-1S29.58,10.64,29.58,11.21Z"/><path class="cls-5" d="M28.16,24s.24,0,.62,0A3.65,3.65,0,0,0,30,23.93a3.92,3.92,0,0,0,1-.47,2.44,2.44,0,0,0,.35-.25l-.08-.27-.15-.45a5.19,5.19,0,0,1-1.11.73,2.46,2.46,0,0,1-1.78,0Z"/><path class="cls-5" d="M28.29,25.64a5.76,5.76,0,0,0,0,.83c.12,0,.53,0,.95,0s.9-.07,1.29-.13A4.58,4.58,0,0,0,31.69,26a2.4,2.4,0,0,0,.44-.21L32,25.43l-.17-.51s-.21.52-1.47.87A3.71,3.71,0,0,1,28.29,25.64Z"/><path class="cls-5" d="M28.37,28.2s0,.47,0,.74,0,.39,0,.39a7.84,7.84,0,0,0,1-.06c.48-.06,1.11-.06,1.56-.13a5.85,5.85,0,0,0,1.5-.55,3,3,0,0,1,.69-.21L33,27.91l-.19-.56a4.46,4.46,0,0,1-2.52,1A7.8,7.8,0,0,1,28.37,28.2Z"/><path class="cls-5" d="M28.52,31.15v1.19a10.68,10.68,0,0,0,3-.27,4.12,4.12,0,0,0,2.32-1.41l-.26-.77c-.18.51-.91.89-2.22,1.27A5.89,5.89,0,0,1,28.52,31.15Z"/><path class="cls-5" d="M28.63,34.06l0,1.33a10.45,10.45,0,0,0,3.13-.34,5.58,5.58,0,0,0,2.91-1.72l-.26-.82a8,8,0,0,1-2.59,1.57A6.29,6.29,0,0,1,28.63,34.06Z"/></g></g></svg>